<?xml version="1.0" standalone="no"?>
<!DOCTYPE svg PUBLIC "-//W3C//DTD SVG 20010904//EN"
 "http://www.w3.org/TR/2001/REC-SVG-20010904/DTD/svg10.dtd">
<svg version="1.0" xmlns="http://www.w3.org/2000/svg"
 width="225.000000pt" height="225.000000pt" viewBox="0 0 225.000000 225.000000"
 preserveAspectRatio="xMidYMid meet">
<metadata>
Created by potrace 1.10, written by Peter Selinger 2001-2011
</metadata>
<g transform="translate(0.000000,225.000000) scale(0.100000,-0.100000)"
fill="#000000" stroke="none">
<path d="M800 2050 c-24 -24 -23 0 -21 -275 l2 -230 -301 0 -302 0 -19 -24
c-18 -22 -19 -44 -19 -398 l0 -374 27 -25 27 -25 291 2 290 1 0 -218 c0 -245
2 -253 68 -279 67 -27 72 -24 265 116 129 94 316 229 455 329 543 390 604 436
612 460 4 12 1 30 -8 43 -12 18 -842 619 -1165 845 -105 73 -166 88 -202 52z
m83 -10 c7 0 6 -4 -3 -10 -12 -8 -10 -10 8 -10 19 0 22 -4 17 -20 -5 -15 1
-22 32 -35 32 -14 168 -99 183 -115 3 -3 21 -17 40 -30 19 -13 37 -27 40 -30
3 -3 25 -19 50 -35 25 -16 47 -32 50 -35 10 -11 132 -90 140 -90 4 0 15 -9 26
-21 10 -12 32 -28 47 -36 15 -7 51 -31 79 -53 28 -21 63 -44 77 -52 14 -7 37
-23 51 -35 14 -13 29 -23 33 -23 5 0 15 -7 24 -15 8 -8 19 -12 25 -9 6 4 8 3
5 -3 -6 -9 52 -50 66 -45 4 1 7 -2 7 -7 0 -5 25 -24 55 -42 30 -18 55 -37 55
-41 0 -4 5 -8 11 -8 6 0 21 -9 33 -20 43 -41 81 -70 90 -70 5 0 3 -6 -3 -14
-10 -12 -8 -13 11 -9 23 6 23 6 4 -15 -11 -12 -25 -22 -33 -22 -7 0 -13 -4
-13 -10 0 -5 -3 -9 -7 -8 -15 3 -62 -25 -57 -33 3 -5 0 -9 -6 -9 -6 0 -9 -4
-5 -9 3 -5 1 -12 -4 -16 -6 -3 -8 3 -6 15 3 17 -3 15 -43 -16 -26 -20 -46 -40
-44 -46 1 -5 -2 -7 -8 -3 -6 4 -37 -13 -69 -37 -33 -24 -83 -60 -113 -80 -29
-20 -210 -148 -403 -284 -192 -135 -360 -251 -372 -256 -18 -9 -21 -16 -16
-39 3 -19 1 -29 -6 -29 -7 0 -10 -3 -8 -8 3 -4 -12 -8 -33 -9 -38 -2 -80 24
-80 50 0 23 17 38 36 31 13 -4 15 -3 6 3 -10 8 -12 61 -10 241 l3 232 -301 0
-301 0 1 -22 c1 -18 -4 -22 -34 -22 -31 -1 -35 2 -38 26 -2 18 4 31 18 41 22
15 22 16 16 329 -6 258 -9 315 -21 324 -8 6 -15 23 -15 36 0 32 30 42 62 19
20 -14 64 -16 316 -20 l292 -3 0 235 c0 201 -2 236 -16 248 -8 7 -13 21 -11
31 3 10 1 18 -4 18 -4 0 -6 6 -3 14 6 16 32 26 52 20 8 -2 19 -4 25 -4z"/>
<path d="M230 1445 c0 -17 9 -19 28 -6 11 7 10 10 -3 15 -23 9 -25 8 -25 -9z"/>
<path d="M1756 1356 c8 -21 71 -59 87 -53 9 4 9 6 -2 6 -7 1 -31 15 -52 32
-23 18 -36 24 -33 15z"/>
<path d="M1280 1278 c0 -5 10 -8 23 -8 12 0 46 -3 75 -6 34 -5 52 -3 52 4 0 6
-31 12 -75 14 -41 2 -75 0 -75 -4z"/>
<path d="M1103 1273 c31 -2 83 -2 115 0 31 2 5 3 -58 3 -63 0 -89 -1 -57 -3z"/>
<path d="M1440 1273 c0 -12 151 -25 162 -15 4 4 -3 7 -15 8 -12 0 -50 4 -84 9
-40 5 -63 4 -63 -2z"/>
<path d="M490 1248 c-62 -37 -47 -89 32 -109 51 -14 74 -31 63 -49 -9 -15 -51
-12 -69 5 -8 8 -29 18 -47 22 -29 6 -31 5 -24 -18 13 -43 40 -62 98 -67 46 -4
57 -1 80 19 58 53 30 113 -59 124 -45 6 -48 9 -40 31 4 10 12 14 24 9 9 -3 36
-10 60 -15 36 -6 42 -5 38 7 -3 8 -6 18 -6 23 0 11 -27 21 -77 30 -33 5 -50 3
-73 -12z"/>
<path d="M823 1263 c-13 -2 -23 -9 -23 -15 0 -6 10 -8 23 -4 12 3 28 6 35 6 6
0 12 5 12 10 0 10 -8 11 -47 3z"/>
<path d="M907 1264 c-3 -3 -3 -14 0 -25 4 -13 14 -19 34 -19 24 0 29 4 29 23
0 20 -5 24 -29 25 -16 0 -31 -2 -34 -4z"/>
<path d="M760 1255 c-8 -2 -32 -6 -52 -10 -21 -3 -38 -10 -38 -15 0 -6 9 -6
24 0 13 5 26 6 29 3 8 -8 67 7 67 18 0 9 -2 9 -30 4z"/>
<path d="M1693 1248 c-13 -6 -23 -19 -23 -30 0 -10 -7 -18 -15 -18 -8 0 -15
-9 -15 -20 0 -11 7 -20 15 -20 11 0 15 -13 15 -53 0 -63 11 -77 62 -77 31 0
38 4 38 20 0 13 -7 20 -20 20 -17 0 -20 7 -20 45 0 38 3 45 20 45 13 0 20 7
20 20 0 13 -7 20 -20 20 -16 0 -20 7 -20 30 0 33 -4 34 -37 18z m14 -70 c3
-17 1 -19 -11 -9 -8 7 -12 19 -9 27 7 18 16 10 20 -18z"/>
<path d="M1815 1240 c-38 -3 -59 -7 -45 -8 14 -1 79 -13 144 -27 66 -14 121
-23 124 -21 7 8 -58 37 -69 31 -5 -4 -8 -1 -7 5 5 21 -54 29 -147 20z"/>
<path d="M715 1202 l-30 -3 5 -75 c5 -78 15 -94 55 -94 11 0 31 7 43 16 20 14
22 14 22 0 0 -11 10 -16 30 -16 l30 0 0 84 0 84 -35 4 -36 4 2 -53 c3 -57 -9
-80 -36 -69 -13 5 -16 18 -14 61 1 30 1 56 -2 57 -2 2 -17 2 -34 0z"/>
<path d="M1027 1202 c-22 -3 -27 -7 -22 -20 51 -138 59 -153 88 -150 25 3 33
12 63 81 19 43 34 81 34 86 0 4 -13 6 -30 3 -25 -4 -31 -11 -48 -61 l-19 -56
-12 45 c-18 69 -23 75 -54 72z"/>
<path d="M358 1191 c6 -3 0 -11 -14 -18 -13 -6 -24 -7 -24 -2 0 5 -7 9 -16 9
-9 0 -12 -5 -8 -12 5 -8 -2 -9 -22 -5 -23 4 -33 1 -43 -15 -18 -30 -8 -33 51
-15 29 9 74 22 101 28 26 6 50 16 54 22 4 6 0 8 -10 4 -10 -3 -17 -3 -17 1 0
4 -14 7 -31 8 -17 1 -26 -2 -21 -5z"/>
<path d="M908 1115 l-3 -85 35 0 35 0 -3 85 -3 85 -29 0 -29 0 -3 -85z"/>
<path d="M1241 1188 c-14 -7 -26 -18 -28 -24 -5 -14 49 -26 62 -13 12 12 52
12 60 0 5 -10 -54 -31 -85 -31 -23 0 -40 -20 -40 -47 0 -40 65 -57 108 -27 20
14 22 14 22 0 0 -11 9 -16 28 -16 l28 0 -4 73 c-2 39 -8 76 -13 81 -14 15
-112 18 -138 4z m99 -86 c0 -15 -24 -32 -47 -32 -30 0 -30 27 0 33 38 7 47 7
47 -1z"/>
<path d="M1435 1115 l0 -85 33 0 32 0 0 60 c0 57 1 60 25 60 27 0 28 -2 25
-72 l-1 -48 34 0 34 0 -5 73 c-2 39 -9 78 -14 85 -14 17 -59 15 -86 -4 -20
-14 -22 -14 -22 0 0 11 -9 16 -27 16 l-28 0 0 -85z"/>
<path d="M310 1116 l-75 -23 -2 -44 c-2 -37 -1 -40 7 -21 6 13 8 28 4 33 -3 5
10 9 28 10 31 1 32 1 8 9 -14 4 -18 9 -10 10 65 7 87 12 107 26 13 8 29 12 35
8 7 -4 8 -3 4 4 -9 15 -16 14 -106 -12z"/>
</g>
</svg>
